# xmcd
#
# Track frame offsets:
#        150
#        15279
#        28062
#        43235
#        60526
#        80889
#        93941
#        108024
#        120532
#        132915
#        145222
#        160278
#        175745
#        190996
#        203147
#        216811
#        229452
#        242027
#        252697
#        266472
#
# Disc length: 3734 seconds
#
# Revision: 0
# Processed by: cddbd v1.5.1PL0 Copyright (c) Steve Scherf et al.
# Submitted via: ExactAudioCopy v0.95b3
#
DISCID=1d0e9414
DTITLE=Duke Ellington - The Duke [204139-336] - [204142-302] High Life
DTITLE=(1928-1929) [CD2)
DYEAR=2004
DGENRE=Pop
TTITLE0=I Must Have That Man
TTITLE1=Freeze And Melt
TTITLE2=Mississippi Moan
TTITLE3=A Nite At The Cotton Club (Part 1)
TTITLE4=A Nite At The Cotton Club (Part 2)
TTITLE5=Cotton Club Stomp
TTITLE6=Misty Mornin'
TTITLE7=Arabian Lover
TTITLE8=Saratoga Swing
TTITLE9=That Rhythmn Man
TTITLE10=Beggars Blues
TTITLE11=Saturdaynight Function
TTITLE12=Black And Blue
TTITLE13=Jungle Jamboree
TTITLE14=Jungle Jamboree
TTITLE15=Snake Hip Dance
TTITLE16=Doin' The Voom Voom
TTITLE17=Flaming Youth
TTITLE18=Saturdaynight Function
TTITLE19=Jolly Wog
EXTD=
EXTT0=
EXTT1=
EXTT2=
EXTT3=
EXTT4=
EXTT5=
EXTT6=
EXTT7=
EXTT8=
EXTT9=
EXTT10=
EXTT11=
EXTT12=
EXTT13=
EXTT14=
EXTT15=
EXTT16=
EXTT17=
EXTT18=
EXTT19=
PLAYORDER=
